<svg xmlns="http://www.w3.org/2000/svg" viewBox="0 0 48 48" width="48" height="48">
  <defs>
    <linearGradient id="g" x1="0" y1="0" x2="1" y2="1">
      <stop offset="0" stop-color="#ff9a2e" />
      <stop offset="1" stop-color="#ef7d10" />
    </linearGradient>
  </defs>
  <rect width="48" height="48" rx="12" fill="url(#g)" />
  <g transform="translate(11.5 11.5)" fill="none" stroke="#ffffff" stroke-width="2.2" stroke-linecap="round" stroke-linejoin="round">
    <path d="M6 9H4.5a2.5 2.5 0 0 1 0-5H6" />
    <path d="M18 9h1.5a2.5 2.5 0 0 0 0-5H18" />
    <path d="M4 22h16" />
    <path d="M10 14.66V17c0 .55-.47.98-.97 1.21C7.85 18.75 7 20.24 7 22" />
    <path d="M14 14.66V17c0 .55.47.98.97 1.21C16.15 18.75 17 20.24 17 22" />
    <path d="M18 2H6v7a6 6 0 0 0 12 0V2Z" />
  </g>
</svg>
